<svg xmlns="http://www.w3.org/2000/svg" xmlns:xlink="http://www.w3.org/1999/xlink" width="38" height="38" viewBox="0 0 38 38"><defs><filter id="a"><feOffset dy="3" input="SourceAlpha"/><feGaussianBlur stdDeviation="3" result="b"/><feFlood flood-color="#e7b219" result="c"/><feComposite operator="out" in="SourceGraphic" in2="b"/><feComposite operator="in" in="c"/><feComposite operator="in" in2="SourceGraphic"/></filter></defs><g transform="translate(-0.208 -0.171)"><g data-type="innerShadowGroup"><rect width="38" height="38" rx="5" transform="translate(0.208 0.171)" fill="#e7b219"/><g transform="matrix(1, 0, 0, 1, 0.21, 0.17)" filter="url(#a)"><rect width="38" height="38" rx="5" transform="translate(0 0)" fill="#fff"/></g></g><path d="M49.5,5.247A.751.751,0,0,0,48.747,6V7.03l8.074,6.627a2.618,2.618,0,0,0,3.328,0L68.217,7.03V6a.751.751,0,0,0-.749-.749Zm-.749,4.69v8.041a.751.751,0,0,0,.749.749H67.468a.751.751,0,0,0,.749-.749V9.936l-6.646,5.457a4.868,4.868,0,0,1-6.178,0ZM46.5,6a3,3,0,0,1,3-3H67.468a3,3,0,0,1,3,3V17.977a3,3,0,0,1-3,3H49.5a3,3,0,0,1-3-3Z" transform="translate(-39.311 7.784)" fill="#fff"/></g></svg>