<svg xmlns="http://www.w3.org/2000/svg" xmlns:xlink="http://www.w3.org/1999/xlink" width="38" height="38" viewBox="0 0 38 38"><defs><filter id="a"><feOffset dy="3" input="SourceAlpha"/><feGaussianBlur stdDeviation="3" result="b"/><feFlood flood-color="#e7b219" result="c"/><feComposite operator="out" in="SourceGraphic" in2="b"/><feComposite operator="in" in="c"/><feComposite operator="in" in2="SourceGraphic"/></filter></defs><g transform="translate(-0.135 -0.171)"><g data-type="innerShadowGroup"><rect width="38" height="38" rx="5" transform="translate(0.135 0.171)" fill="#e7b219"/><g transform="matrix(1, 0, 0, 1, 0.13, 0.17)" filter="url(#a)"><rect width="38" height="38" rx="5" transform="translate(0 0)" fill="#fff"/></g></g><path d="M53.886,14.508v9.955h5.429V14.508h4.049l.842-4.577H59.315V8.312c0-2.42.95-3.346,3.4-3.346.763,0,1.376.019,1.732.056V.87A16.791,16.791,0,0,0,61.2.5c-5,0-7.311,2.364-7.311,7.461v1.97H50.8v4.577Z" transform="translate(-38.815 6.689)" fill="#fff"/></g></svg>