<svg xmlns="http://www.w3.org/2000/svg" xmlns:xlink="http://www.w3.org/1999/xlink" width="38" height="38" viewBox="0 0 38 38"><defs><filter id="a"><feOffset dy="3" input="SourceAlpha"/><feGaussianBlur stdDeviation="3" result="b"/><feFlood flood-color="#e7b219" result="c"/><feComposite operator="out" in="SourceGraphic" in2="b"/><feComposite operator="in" in="c"/><feComposite operator="in" in2="SourceGraphic"/></filter></defs><g transform="translate(-0.28 -0.171)"><g data-type="innerShadowGroup"><rect width="38" height="38" rx="5" transform="translate(0.28 0.171)" fill="#e7b219"/><g transform="matrix(1, 0, 0, 1, 0.28, 0.17)" filter="url(#a)"><rect width="38" height="38" rx="5" transform="translate(0 0)" fill="#fff"/></g></g><path d="M65.578,4.8A10.394,10.394,0,0,0,49.224,17.336L47.75,22.718l5.509-1.446a10.359,10.359,0,0,0,4.966,1.264h0A10.49,10.49,0,0,0,68.718,12.145,10.431,10.431,0,0,0,65.578,4.8ZM58.229,20.785a8.621,8.621,0,0,1-4.4-1.2l-.314-.187-3.267.857.871-3.187-.206-.328a8.653,8.653,0,1,1,16.049-4.591A8.733,8.733,0,0,1,58.229,20.785Zm4.737-6.468c-.257-.131-1.535-.758-1.774-.842s-.412-.131-.585.131-.669.842-.824,1.02-.3.2-.562.066A7.067,7.067,0,0,1,55.688,11.6c-.267-.459.267-.426.763-1.418a.481.481,0,0,0-.023-.454c-.066-.131-.585-1.409-.8-1.928s-.426-.435-.585-.445-.323-.009-.5-.009a.962.962,0,0,0-.693.323,2.917,2.917,0,0,0-.908,2.167A5.086,5.086,0,0,0,54,12.524a11.6,11.6,0,0,0,4.437,3.922,5.08,5.08,0,0,0,3.117.651,2.659,2.659,0,0,0,1.75-1.236,2.171,2.171,0,0,0,.15-1.236C63.4,14.509,63.223,14.443,62.966,14.317Z" transform="translate(-39.363 6.637)" fill="#fff"/></g></svg>